<?xml version="1.0" encoding="utf-8"?><!-- Uploaded to: SVG Repo, www.svgrepo.com, Generator: SVG Repo Mixer Tools -->
<svg width="800px" height="800px" viewBox="0 0 24 24" fill="none" xmlns="http://www.w3.org/2000/svg">
<path d="M7 11V18C7 19.1046 7.89543 20 9 20H14C15.1046 20 16 19.1046 16 18V18M7 11C8.30797 11 9.42043 10.163 9.83095 8.99532C9.8869 8.99843 9.94327 9 10 9C10.8885 9 11.6868 8.61375 12.2361 8H15.5C16.3284 8 17 7.32843 17 6.5C17 5.67157 16.3284 5 15.5 5H12.8293C12.4175 3.83481 11.3062 3 10 3C8.69203 3 7.57957 3.83704 7.16905 5.00468C7.1131 5.00157 7.05673 5 7 5C5.34315 5 4 6.34315 4 8C4 9.65685 5.34315 11 7 11ZM16 8V10M16 10H18C19.1046 10 20 10.8954 20 12V16C20 17.1046 19.1046 18 18 18H16M16 10V18" stroke="#000000" stroke-width="2" stroke-linecap="round" stroke-linejoin="round"/>
</svg>