<?xml version="1.0" encoding="iso-8859-1"?>
<!-- Uploaded to: SVG Repo, www.svgrepo.com, Generator: SVG Repo Mixer Tools -->
<svg fill="#000000" height="800px" width="800px" version="1.1" id="Capa_1" xmlns="http://www.w3.org/2000/svg" xmlns:xlink="http://www.w3.org/1999/xlink" 
	 viewBox="0 0 475.952 475.952" xml:space="preserve">
<g>
	<path d="M468.454,325.277h-15.127V176.77h6.43c4.143,0,7.5-3.357,7.5-7.5c0-4.143-3.357-7.5-7.5-7.5h-27.289v-20.332
		c0-4.143-3.357-7.5-7.5-7.5s-7.5,3.357-7.5,7.5v20.331h-106.82l-49.95-73.26c-2.333-3.424-7.001-4.307-10.421-1.972
		c-3.423,2.333-4.306,6.999-1.972,10.421l44.189,64.811H16.197c-4.142,0-7.5,3.357-7.5,7.5c0,4.143,3.358,7.5,7.5,7.5h6.429v148.508
		H7.5c-4.142,0-7.5,3.357-7.5,7.5s3.358,7.5,7.5,7.5h15.126v6.416c0,4.143,3.358,7.5,7.5,7.5h81.854
		c3.572,20.715,21.656,36.528,43.376,36.528c12.749,0,24.244-5.452,32.291-14.141h100.658c8.048,8.688,19.543,14.141,32.291,14.141
		c21.72,0,39.804-15.813,43.376-36.528h81.853c4.143,0,7.5-3.357,7.5-7.5v-6.416h15.127c4.143,0,7.5-3.357,7.5-7.5
		S472.596,325.277,468.454,325.277z M438.327,266.137h-16.296v-61.536h16.296V266.137z M438.327,176.77v12.831h-23.796
		c-4.143,0-7.5,3.357-7.5,7.5v69.041h-16.317v-69.041c0-4.143-3.357-7.5-7.5-7.5h-48.799c-4.143,0-7.5,3.357-7.5,7.5v69.041h-18.682
		v-69.041c0-4.143-3.357-7.5-7.5-7.5h-46.231c-4.143,0-7.5,3.357-7.5,7.5v69.041h-18.049v-69.041c0-4.143-3.358-7.5-7.5-7.5h-46.231
		c-4.142,0-7.5,3.357-7.5,7.5v69.041H149.04v-69.041c0-4.143-3.358-7.5-7.5-7.5h-48.8c-4.142,0-7.5,3.357-7.5,7.5v69.041H68.923
		v-69.041c0-4.143-3.358-7.5-7.5-7.5H37.626V176.77H438.327z M149.04,339.193v-58.052h177.875v58.052H149.04z M182.721,266.137
		v-61.536h31.231v61.536H182.721z M262.001,266.137v-61.536h31.231v61.536H262.001z M53.923,266.137H37.626v-61.536h16.296v61.536
		H53.923z M37.626,281.142H85.24v58.052H37.626V281.142z M100.24,204.601h33.8v134.592h-33.8
		C100.24,339.193,100.24,204.601,100.24,204.601z M155.356,375.722c-13.413,0-24.725-9.147-28.041-21.528h56.081
		C180.082,366.575,168.769,375.722,155.356,375.722z M196.789,361.581c0.856-2.375,1.506-4.845,1.944-7.388h78.489
		c0.438,2.542,1.088,5.013,1.944,7.388H196.789z M320.597,375.722c-13.413,0-24.725-9.147-28.04-21.528h56.081
		C345.323,366.575,334.01,375.722,320.597,375.722z M341.915,339.193V204.601h33.799v134.592H341.915z M438.327,339.193h-47.613
		v-58.052h47.613V339.193z"/>
</g>
</svg>